<?xml version="1.0" encoding="UTF-8" standalone="no"?>
<svg width="328px" height="86px" viewBox="0 0 328 86" version="1.1" xmlns="http://www.w3.org/2000/svg" xmlns:xlink="http://www.w3.org/1999/xlink">
    <!-- Generator: Sketch 41.2 (35397) - http://www.bohemiancoding.com/sketch -->
    <title>Page 1</title>
    <desc>Created with Sketch.</desc>
    <defs>
        <polygon id="path-1" points="85.4159613 85.7032258 0 85.7032258 0 42.995351 0 0.287476129 85.4159613 0.287476129 85.4159613 85.7032258"></polygon>
    </defs>
    <g id="Page-1" stroke="none" stroke-width="1" fill="none" fill-rule="evenodd">
        <g id="Login-Design-2-Copy" transform="translate(-556.000000, -378.000000)">
            <g id="Page-1" transform="translate(556.000000, 378.000000)">
                <path d="M112.906805,60.5117148 L112.906805,60.5117148 C110.364805,60.5117148 108.304754,58.4511342 108.304754,55.9091342 L108.304754,19.57996 C108.304754,17.038489 110.364805,14.9779084 112.906805,14.9779084 C115.449334,14.9779084 117.509386,17.038489 117.509386,19.57996 L117.509386,55.9091342 C117.509386,58.4511342 115.449334,60.5117148 112.906805,60.5117148" id="Fill-1" fill="#FFFFFF"></path>
                <path d="M129.897787,60.5117148 L129.897787,60.5117148 C127.355787,60.5117148 125.295206,58.4511342 125.295206,55.9091342 L125.295206,32.0989794 C125.295206,29.5569794 127.355787,27.4963987 129.897787,27.4963987 C132.439787,27.4963987 134.500368,29.5569794 134.500368,32.0989794 L134.500368,55.9091342 C134.500368,58.4511342 132.439787,60.5117148 129.897787,60.5117148 M126.062832,23.2927084 C125.019052,22.2494568 124.497426,20.9718439 124.497426,19.4572245 C124.497426,17.9447213 125.019052,16.6649923 126.062832,15.6222697 C127.106084,14.5790181 128.384226,14.0573923 129.898316,14.0573923 C131.410819,14.0573923 132.68949,14.5790181 133.733271,15.6222697 C134.776523,16.6649923 135.298148,17.9447213 135.298148,19.4572245 C135.298148,20.9718439 134.776523,22.2494568 133.733271,23.2927084 C132.68949,24.336489 131.410819,24.8575858 129.898316,24.8575858 C128.384226,24.8575858 127.106084,24.336489 126.062832,23.2927084" id="Fill-3" fill="#FFFFFF"></path>
                <path d="M184.95227,36.1493561 C183.68365,35.0860013 182.139405,34.5537948 180.319005,34.5537948 C178.498076,34.5537948 176.830566,35.1061045 175.318063,36.2107239 C173.803973,37.3153432 172.924721,38.8093303 172.678721,40.69004 L187.161508,40.69004 C186.956244,38.7268013 186.219831,37.21324 184.95227,36.1493561 M191.023444,52.728169 C192.611599,54.449111 192.257676,57.2254723 190.247354,58.4274335 C187.374708,60.1441432 184.188347,61.0027626 180.687212,61.0027626 C175.675689,61.0027626 171.532837,59.4590465 168.260773,56.3694981 C164.987121,53.2810077 163.351354,49.1386852 163.351354,43.9425303 C163.351354,38.7479626 165.017805,34.6151626 168.352825,31.5467755 C171.686786,28.4783884 175.624373,26.9441948 180.165586,26.9441948 C184.707328,26.9441948 188.562386,28.3154465 191.733405,31.0558335 C194.903895,33.7972787 196.489934,37.5602852 196.489934,42.346969 C196.489934,45.0587884 194.291276,47.2563884 191.579986,47.2563884 L172.433779,47.2563884 C172.718928,49.0572142 173.660605,50.53004 175.256166,51.6748658 C176.851728,52.8207497 178.652025,53.3936916 180.656528,53.3936916 C182.810747,53.3936916 184.711031,52.9117432 186.35685,51.9478465 C187.877289,51.0574852 189.82836,51.4336271 191.023444,52.728169" id="Fill-5" fill="#FFFFFF"></path>
                <path d="M206.011827,14.9777497 L206.011827,14.9777497 C207.638601,14.9777497 208.957479,16.2966271 208.957479,17.9234013 L208.957479,57.5659045 C208.957479,59.1932077 207.638601,60.5115561 206.011827,60.5115561 C204.385053,60.5115561 203.066705,59.1932077 203.066705,57.5659045 L203.066705,17.9234013 C203.066705,16.2966271 204.385053,14.9777497 206.011827,14.9777497" id="Fill-7" fill="#FFFFFF"></path>
                <path d="M238.22439,54.2831535 C239.881848,53.322431 241.180093,51.9723406 242.12177,50.2328826 C243.06239,48.4944826 243.533228,46.500031 243.533228,44.2495277 C243.533228,42.0000826 243.06239,40.005631 242.12177,38.2661729 C241.180093,36.5277729 239.881848,35.1887923 238.22439,34.2471148 C236.56799,33.3059665 234.696274,32.8351277 232.60977,32.8351277 C230.523267,32.8351277 228.651551,33.3059665 226.994622,34.2471148 C225.338222,35.1887923 224.028338,36.5277729 223.067615,38.2661729 C222.105306,40.005631 221.624945,42.0000826 221.624945,44.2495277 C221.624945,46.500031 222.105306,48.4944826 223.067615,50.2328826 C224.028338,51.9723406 225.338222,53.322431 226.994622,54.2831535 C228.651551,55.2449342 230.523267,55.7252955 232.60977,55.7252955 C234.696274,55.7252955 236.56799,55.2449342 238.22439,54.2831535 M223.895551,58.7323148 C221.318635,57.3007535 219.303022,55.3264052 217.851357,52.8103277 C216.398106,50.2942503 215.672274,47.4406503 215.672274,44.2495277 C215.672274,41.0584052 216.398106,38.2048052 217.851357,35.6887277 C219.303022,33.1731794 221.318635,31.2094116 223.895551,29.7974245 C226.472996,28.3864955 229.377383,27.6807665 232.60977,27.6807665 C235.841628,27.6807665 238.735964,28.3864955 241.293306,29.7974245 C243.84959,31.2094116 245.854622,33.1731794 247.307345,35.6887277 C248.759009,38.2048052 249.48537,41.0584052 249.48537,44.2495277 C249.48537,47.4406503 248.759009,50.2942503 247.307345,52.8103277 C245.854622,55.3264052 243.84959,57.3007535 241.293306,58.7323148 C238.735964,60.1644052 235.841628,60.8801858 232.60977,60.8801858 C229.377383,60.8801858 226.472996,60.1644052 223.895551,58.7323148" id="Fill-9" fill="#FFFFFF"></path>
                <path d="M276.193299,54.2831535 C277.850757,53.322431 279.149003,51.9723406 280.09068,50.2328826 C281.031299,48.4944826 281.501609,46.500031 281.501609,44.2495277 C281.501609,42.0000826 281.031299,40.005631 280.09068,38.2661729 C279.149003,36.5277729 277.850757,35.1887923 276.193299,34.2471148 C274.536899,33.3059665 272.665183,32.8351277 270.57868,32.8351277 C268.492177,32.8351277 266.620461,33.3059665 264.963003,34.2471148 C263.307132,35.1887923 261.997248,36.5277729 261.035996,38.2661729 C260.074215,40.005631 259.593854,42.0000826 259.593854,44.2495277 C259.593854,46.500031 260.074215,48.4944826 261.035996,50.2328826 C261.997248,51.9723406 263.307132,53.322431 264.963003,54.2831535 C266.620461,55.2449342 268.492177,55.7252955 270.57868,55.7252955 C272.665183,55.7252955 274.536899,55.2449342 276.193299,54.2831535 M261.864461,58.7323148 C259.287545,57.3007535 257.271403,55.3264052 255.820267,52.8103277 C254.367015,50.2942503 253.641183,47.4406503 253.641183,44.2495277 C253.641183,41.0584052 254.367015,38.2048052 255.820267,35.6887277 C257.271403,33.1731794 259.287545,31.2094116 261.864461,29.7974245 C264.441906,28.3864955 267.346293,27.6807665 270.57868,27.6807665 C273.810538,27.6807665 276.704874,28.3864955 279.262215,29.7974245 C281.818499,31.2094116 283.823532,33.1731794 285.276254,35.6887277 C286.727919,38.2048052 287.45428,41.0584052 287.45428,44.2495277 C287.45428,47.4406503 286.727919,50.2942503 285.276254,52.8103277 C283.823532,55.3264052 281.818499,57.3007535 279.262215,58.7323148 C276.704874,60.1644052 273.810538,60.8801858 270.57868,60.8801858 C267.346293,60.8801858 264.441906,60.1644052 261.864461,58.7323148" id="Fill-11" fill="#FFFFFF"></path>
                <path d="M316.347588,54.2831535 C318.004517,53.322431 319.313343,51.9723406 320.275124,50.2328826 C321.235317,48.4944826 321.717266,46.500031 321.717266,44.2495277 C321.717266,42.0000826 321.235317,40.005631 320.275124,38.2661729 C319.313343,36.5277729 318.004517,35.1887923 316.347588,34.2471148 C314.690659,33.3059665 312.818943,32.8351277 310.732969,32.8351277 C308.686672,32.8351277 306.836117,33.3170761 305.179188,34.2777987 C303.522259,35.2390503 302.212375,36.57856 301.251653,38.2973858 C300.289343,40.0151535 299.808982,42.0000826 299.808982,44.2495277 C299.808982,46.500031 300.279292,48.4944826 301.22044,50.2328826 C302.161588,51.9723406 303.469885,53.322431 305.147975,54.2831535 C306.825537,55.2449342 308.686672,55.7252955 310.732969,55.7252955 C312.818943,55.7252955 314.690659,55.2449342 316.347588,54.2831535 M319.691601,29.7672697 C322.187046,31.1580955 324.141292,33.10176 325.55275,35.5966761 C326.964208,38.0926503 327.669408,40.9769342 327.669408,44.2495277 C327.669408,47.5231794 326.964208,50.4169858 325.55275,52.9330632 C324.141292,55.4491406 322.187046,57.4028568 319.691601,58.7936826 C317.196156,60.1850374 314.373769,60.8801858 311.223382,60.8801858 C308.891408,60.8801858 306.753588,60.4299794 304.810453,59.5295665 C302.867317,58.6302116 301.22044,57.3208568 299.87035,55.60256 L299.87035,69.4711406 C299.87035,71.0979148 298.551472,72.4167923 296.924698,72.4167923 C295.297924,72.4167923 293.979575,71.0979148 293.979575,69.4711406 L293.979575,30.8105213 C293.979575,29.2514632 295.242905,27.9876052 296.802492,27.9876052 C298.36155,27.9876052 299.625408,29.2514632 299.625408,30.8105213 L299.625408,33.1424955 C300.934234,31.3421987 302.590634,29.9815277 304.595666,29.0615406 C306.59964,28.1404955 308.809408,27.6807665 311.223382,27.6807665 C314.373769,27.6807665 317.196156,28.3764439 319.691601,29.7672697" id="Fill-13" fill="#FFFFFF"></path>
                <path d="M160.929391,17.8310852 C160.929391,15.7472271 159.239662,14.0574981 157.155275,14.0574981 L155.130139,14.0574981 C151.877649,14.0574981 149.156307,15.1108013 146.96823,17.2174077 C144.779623,19.3250723 143.685055,22.1786723 143.685055,25.7782077 L143.685055,27.8033432 L143.132217,27.8033432 C141.302294,27.8033432 139.818888,29.2867497 139.818888,31.1172013 C139.818888,32.9471239 141.302294,34.4305303 143.132217,34.4305303 L143.685055,34.4305303 L143.685055,55.8785561 C143.685055,58.4374852 145.759391,60.5118206 148.31832,60.5118206 C150.877249,60.5118206 152.951585,58.4374852 152.951585,55.8785561 L152.951585,34.4305303 L157.615533,34.4305303 C159.445455,34.4305303 160.929391,32.9471239 160.929391,31.1172013 C160.929391,29.2867497 159.445455,27.8033432 157.615533,27.8033432 L152.951585,27.8033432 L152.951585,25.5941045 C152.951585,24.2852787 153.258423,23.2928142 153.872101,22.617769 C154.485778,21.9427239 155.262397,21.6052013 156.204075,21.6052013 L156.204075,21.6052013 L157.155275,21.6052013 C159.239662,21.6052013 160.929391,19.9154723 160.929391,17.8310852" id="Fill-15" fill="#FFFFFF"></path>
                <g id="Group-19" transform="translate(0.000000, 0.241768)">
                    <mask id="mask-2" fill="white">
                        <use xlink:href="#path-1"></use>
                    </mask>
                    <g id="Clip-18"></g>
                    <path d="M42.7082452,80.8802503 C21.7844903,80.8802503 4.8231871,63.9184181 4.8231871,42.9951923 C4.8231871,22.0719665 21.7844903,5.11013419 42.7082452,5.11013419 C63.631471,5.11013419 80.5927742,22.0719665 80.5927742,42.9951923 C80.5927742,63.9184181 63.631471,80.8802503 42.7082452,80.8802503 M42.7082452,0.287476129 C19.1208129,0.287476129 0,19.408289 0,42.9951923 C0,66.5820955 19.1208129,85.7034374 42.7082452,85.7034374 C66.2951484,85.7034374 85.4159613,66.5820955 85.4159613,42.9951923 C85.4159613,19.408289 66.2951484,0.287476129 42.7082452,0.287476129" id="Fill-17" fill="#FFFFFF" mask="url(#mask-2)"></path>
                </g>
                <path d="M68.1198865,31.926409 C68.1198865,30.3133897 66.8126477,29.006151 65.1996284,29.006151 C63.5871381,29.006151 62.2793703,30.3133897 62.2793703,31.926409 C62.2793703,33.5394284 63.5871381,34.8466671 65.1996284,34.8466671 C66.8126477,34.8466671 68.1198865,33.5394284 68.1198865,31.926409" id="Fill-20" fill="#F9951C"></path>
                <path d="M30.0977561,61.7761548 C28.5963626,63.6833161 26.8177561,64.7106968 24.8106077,64.828671 C22.9849174,64.9392387 22.1104271,64.0017935 21.7538594,63.4352 C21.2137174,62.5797548 21.1401819,61.5280387 21.5665819,60.7551226 C22.0850335,59.8145032 23.3642335,59.2965806 25.1687626,59.2965806 C27.4510077,59.2965806 29.6300916,59.286529 31.6324787,59.2711871 C31.3346335,59.9060258 30.8304658,60.8461161 30.0977561,61.7761548 L30.0977561,61.7761548 Z M69.9370594,24.7687613 C69.9360013,24.7560645 69.9344142,24.7401935 69.9322981,24.7211484 C69.9243626,24.4561032 69.8836271,24.1995226 69.8100916,23.9566968 C69.537111,22.6568645 68.7038852,20.1370839 66.208969,18.3436645 C64.6102335,17.1940774 62.0126852,15.8291742 58.6914206,15.8291742 C58.6686723,15.8291742 58.6453948,15.8291742 58.6231755,15.8297032 C55.2997948,15.8482194 52.055769,17.2951226 49.2407884,20.0138194 C47.3658981,21.8241677 45.7523497,24.2328516 44.8117303,26.6240774 L33.9951368,53.4407226 C31.4028787,53.4682323 28.3884529,53.4883355 25.1687626,53.4883355 C21.2110723,53.4883355 18.0448142,55.1151097 16.4809948,57.9501935 C15.0266852,60.5868903 15.1642335,63.8764129 16.8407368,66.534271 C18.4828529,69.1371097 21.3295755,70.6448516 24.5413303,70.6448516 C24.7434206,70.6448516 24.9476271,70.6385032 25.1518335,70.6268645 C28.9079626,70.405729 32.244569,68.5260774 34.8003239,65.190529 C36.4498465,63.0373677 37.2481561,60.9625032 37.4280271,60.4562194 L37.935369,59.1992387 C40.9783626,59.1537419 42.8601303,59.1093032 42.8982206,59.1087742 C42.9130335,59.1082452 42.9278465,59.1077161 42.9421303,59.1071871 C43.1394594,59.0992516 47.8282723,58.9035097 52.4901045,57.6179613 C59.7489561,55.6155742 61.9846465,49.6872387 64.814969,42.181329 C65.1339755,41.3364645 65.4656787,40.4577419 65.8174852,39.5467484 C66.3946594,38.0506452 65.65084,36.3693806 64.1547368,35.7911484 C62.6586335,35.2134452 60.977369,35.9577935 60.3991368,37.4533677 C60.04204,38.3802323 59.7050465,39.2732387 59.3807497,40.1318581 C56.5906335,47.5309032 55.1781174,50.8516387 50.9458594,52.0186839 C47.0812787,53.0846839 43.0310077,53.2894194 42.7326335,53.3026452 C42.5718077,53.3063484 41.7031368,53.3264516 40.2937948,53.3518452 L50.2036271,28.7846452 C50.2068013,28.7756516 50.2105045,28.7671871 50.2131497,28.7587226 C50.8506335,27.1356516 51.9949303,25.4284645 53.2762465,24.1915871 C55.0479755,22.4801677 58.6443368,20.057729 62.8184013,23.058929 C63.698711,23.6921806 64.0087239,24.6343871 64.10924,25.0687226 C64.2420271,26.5590065 65.4921303,27.7271097 67.0162723,27.7271097 C68.6292916,27.7271097 69.9370594,26.4193419 69.9370594,24.8068516 C69.9370594,24.7941548 69.9349432,24.7814581 69.9349432,24.7687613 L69.9370594,24.7687613 Z" id="Fill-22" fill="#FFFFFF"></path>
            </g>
        </g>
    </g>
</svg>